<svg xmlns="http://www.w3.org/2000/svg" width="640" height="400" viewBox="0 0 640 400" role="img" aria-label="FAQ preview">
  <rect width="640" height="400" fill="#f4f4f5"/>
  
  <rect x="0" y="0" width="640" height="24" fill="#ffffff" stroke="#e4e4e7" stroke-width="1"/>
  <circle cx="38.4" cy="12" r="4.8" fill="#2563eb"/>
  <rect x="76.8" y="8.799999999999999" width="76.8" height="6.4" rx="3" fill="#18181b" opacity="0.15"/>
  <rect x="460.79999999999995" y="8.799999999999999" width="51.2" height="6.4" rx="3" fill="#71717a" opacity="0.35"/>
  <rect x="524.8" y="7.199999999999999" width="64" height="9.6" rx="5" fill="#2563eb"/>
  <rect x="0" y="0" width="640" height="95" fill="#dbeafe"/>
  <rect x="0" y="95" width="640" height="189" fill="#f4f4f5"/>
  <rect x="0" y="284" width="640" height="116" fill="#ffffff"/>
  
  <rect x="51.2" y="23.75" width="288" height="11.4" rx="4" fill="#18181b" opacity="0.12"/>
  <rect x="51.2" y="42.75" width="224" height="6.65" rx="3" fill="#71717a" opacity="0.25"/>
  <rect x="51.2" y="61.75" width="115.19999999999999" height="13.3" rx="6" fill="#2563eb"/>
  
  
  <rect x="76.8" y="117.68" width="486.4" height="26.46" rx="4" fill="#ffffff" stroke="#e4e4e7"/>
  <rect x="76.8" y="155.48000000000002" width="486.4" height="26.46" rx="4" fill="#ffffff" stroke="#e4e4e7"/>
  <rect x="76.8" y="193.28" width="486.4" height="26.46" rx="4" fill="#ffffff" stroke="#e4e4e7"/>
  <rect x="76.8" y="231.07999999999998" width="486.4" height="26.46" rx="4" fill="#ffffff" stroke="#e4e4e7"/>
  
  <rect x="192" y="313" width="256" height="13.92" rx="4" fill="#18181b" opacity="0.1"/>
  <rect x="230.39999999999998" y="347.8" width="179.20000000000002" height="18.56" rx="6" fill="#2563eb"/>
  <text x="25.6" y="392" font-family="ui-sans-serif,system-ui,sans-serif" font-size="11.200000000000001" font-weight="600" fill="#71717a">FAQ</text>
</svg>