<svg xmlns="http://www.w3.org/2000/svg" width="640" height="400" viewBox="0 0 640 400" role="img" aria-label="Team preview">
  <rect width="640" height="400" fill="#f4f4f5"/>
  
  <rect x="0" y="0" width="640" height="24" fill="#ffffff" stroke="#e4e4e7" stroke-width="1"/>
  <circle cx="38.4" cy="12" r="4.8" fill="#2563eb"/>
  <rect x="76.8" y="8.799999999999999" width="76.8" height="6.4" rx="3" fill="#18181b" opacity="0.15"/>
  <rect x="460.79999999999995" y="8.799999999999999" width="51.2" height="6.4" rx="3" fill="#71717a" opacity="0.35"/>
  <rect x="524.8" y="7.199999999999999" width="64" height="9.6" rx="5" fill="#2563eb"/>
  <rect x="0" y="0" width="640" height="105" fill="#dbeafe"/>
  <rect x="0" y="105" width="640" height="58" fill="#ffffff"/>
  <rect x="0" y="163" width="640" height="116" fill="#f4f4f5"/>
  <rect x="0" y="279" width="640" height="121" fill="#ffffff"/>
  
  <rect x="51.2" y="26.25" width="288" height="12.6" rx="4" fill="#18181b" opacity="0.12"/>
  <rect x="51.2" y="47.25" width="224" height="7.3500000000000005" rx="3" fill="#71717a" opacity="0.25"/>
  <rect x="51.2" y="68.25" width="115.19999999999999" height="14.700000000000001" rx="6" fill="#2563eb"/>
  
  
  <rect x="51.2" y="122.4" width="352" height="5.800000000000001" rx="4" fill="#18181b" opacity="0.1"/>
  <rect x="51.2" y="134" width="448" height="4.64" rx="3" fill="#71717a" opacity="0.2"/>
  <rect x="51.2" y="188.52" width="120" height="63.800000000000004" rx="6" fill="#ffffff" stroke="#e4e4e7"/>
  <rect x="190.39999999999998" y="188.52" width="120" height="63.800000000000004" rx="6" fill="#ffffff" stroke="#e4e4e7"/>
  <rect x="329.59999999999997" y="188.52" width="120" height="63.800000000000004" rx="6" fill="#ffffff" stroke="#e4e4e7"/>
  <rect x="468.79999999999995" y="188.52" width="120" height="63.800000000000004" rx="6" fill="#ffffff" stroke="#e4e4e7"/>
  
  <rect x="192" y="309.25" width="256" height="14.52" rx="4" fill="#18181b" opacity="0.1"/>
  <rect x="230.39999999999998" y="345.55" width="179.20000000000002" height="19.36" rx="6" fill="#2563eb"/>
  <text x="25.6" y="392" font-family="ui-sans-serif,system-ui,sans-serif" font-size="11.200000000000001" font-weight="600" fill="#71717a">Team</text>
</svg>