<svg xmlns="http://www.w3.org/2000/svg" width="960" height="600" viewBox="0 0 960 600" role="img" aria-label="SaaS Landing preview">
  <rect width="960" height="600" fill="#f4f4f5"/>
  
  <rect x="0" y="0" width="960" height="36" fill="#ffffff" stroke="#e4e4e7" stroke-width="1"/>
  <circle cx="57.599999999999994" cy="18" r="7.2" fill="#2563eb"/>
  <rect x="115.19999999999999" y="13.2" width="115.19999999999999" height="9.6" rx="3" fill="#18181b" opacity="0.15"/>
  <rect x="691.1999999999999" y="13.2" width="76.8" height="9.6" rx="3" fill="#71717a" opacity="0.35"/>
  <rect x="787.1999999999999" y="10.799999999999999" width="96" height="14.4" rx="5" fill="#2563eb"/>
  <rect x="0" y="0" width="960" height="221" fill="#dbeafe"/>
  <rect x="0" y="221" width="960" height="142" fill="#ffffff"/>
  <rect x="0" y="363" width="960" height="79" fill="#f4f4f5"/>
  <rect x="0" y="442" width="960" height="87" fill="#ffffff"/>
  <rect x="0" y="529" width="960" height="71" fill="#f4f4f5"/>
  
  <rect x="76.8" y="55.25" width="432" height="26.52" rx="4" fill="#18181b" opacity="0.12"/>
  <rect x="76.8" y="99.45" width="336" height="15.47" rx="3" fill="#71717a" opacity="0.25"/>
  <rect x="76.8" y="143.65" width="172.79999999999998" height="30.94" rx="6" fill="#2563eb"/>
  
  <rect x="76.8" y="252.24" width="249.6" height="78.10000000000001" rx="6" fill="#ffffff" stroke="#e4e4e7"/>
  <rect x="355.2" y="252.24" width="249.6" height="78.10000000000001" rx="6" fill="#ffffff" stroke="#e4e4e7"/>
  <rect x="633.5999999999999" y="252.24" width="249.6" height="78.10000000000001" rx="6" fill="#ffffff" stroke="#e4e4e7"/>
  
  <rect x="76.8" y="386.7" width="528" height="7.9" rx="4" fill="#18181b" opacity="0.1"/>
  <rect x="76.8" y="402.5" width="672" height="6.32" rx="3" fill="#71717a" opacity="0.2"/>
  
  <rect x="76.8" y="468.1" width="528" height="8.700000000000001" rx="4" fill="#18181b" opacity="0.1"/>
  <rect x="76.8" y="485.5" width="672" height="6.96" rx="3" fill="#71717a" opacity="0.2"/>
  <rect x="96" y="539.65" width="230.39999999999998" height="49.699999999999996" rx="6" fill="#ffffff" opacity="1" stroke="#e4e4e7"/>
  <rect x="364.79999999999995" y="539.65" width="230.39999999999998" height="49.699999999999996" rx="6" fill="#2563eb" opacity="0.9" stroke="#e4e4e7"/>
  <rect x="633.5999999999999" y="539.65" width="230.39999999999998" height="49.699999999999996" rx="6" fill="#ffffff" opacity="1" stroke="#e4e4e7"/>
  <text x="38.4" y="592" font-family="ui-sans-serif,system-ui,sans-serif" font-size="16.8" font-weight="600" fill="#71717a">SaaS Landing</text>
</svg>