<svg xmlns="http://www.w3.org/2000/svg" width="640" height="400" viewBox="0 0 640 400" role="img" aria-label="Landing Page preview">
  <rect width="640" height="400" fill="#f4f4f5"/>
  
  <rect x="0" y="0" width="640" height="24" fill="#ffffff" stroke="#e4e4e7" stroke-width="1"/>
  <circle cx="38.4" cy="12" r="4.8" fill="#2563eb"/>
  <rect x="76.8" y="8.799999999999999" width="76.8" height="6.4" rx="3" fill="#18181b" opacity="0.15"/>
  <rect x="460.79999999999995" y="8.799999999999999" width="51.2" height="6.4" rx="3" fill="#71717a" opacity="0.35"/>
  <rect x="524.8" y="7.199999999999999" width="64" height="9.6" rx="5" fill="#2563eb"/>
  <rect x="0" y="0" width="640" height="126" fill="#dbeafe"/>
  <rect x="0" y="126" width="640" height="47" fill="#ffffff"/>
  <rect x="0" y="174" width="640" height="95" fill="#f4f4f5"/>
  <rect x="0" y="268" width="640" height="132" fill="#ffffff"/>
  
  <rect x="51.2" y="37.8" width="352" height="12.600000000000001" rx="4" fill="#18181b" opacity="0.1"/>
  <rect x="51.2" y="63" width="448" height="10.08" rx="3" fill="#71717a" opacity="0.2"/>
  
  <rect x="51.2" y="140.1" width="352" height="4.7" rx="4" fill="#18181b" opacity="0.1"/>
  <rect x="51.2" y="149.5" width="448" height="3.7600000000000002" rx="3" fill="#71717a" opacity="0.2"/>
  
  <rect x="76.8" y="185.4" width="486.4" height="13.3" rx="4" fill="#ffffff" stroke="#e4e4e7"/>
  <rect x="76.8" y="204.4" width="486.4" height="13.3" rx="4" fill="#ffffff" stroke="#e4e4e7"/>
  <rect x="76.8" y="223.4" width="486.4" height="13.3" rx="4" fill="#ffffff" stroke="#e4e4e7"/>
  <rect x="76.8" y="242.39999999999998" width="486.4" height="13.3" rx="4" fill="#ffffff" stroke="#e4e4e7"/>
  
  <rect x="192" y="301" width="256" height="15.84" rx="4" fill="#18181b" opacity="0.1"/>
  <rect x="230.39999999999998" y="340.6" width="179.20000000000002" height="21.12" rx="6" fill="#2563eb"/>
  <text x="25.6" y="392" font-family="ui-sans-serif,system-ui,sans-serif" font-size="11.200000000000001" font-weight="600" fill="#71717a">Landing Page</text>
</svg>