<svg xmlns="http://www.w3.org/2000/svg" width="640" height="400" viewBox="0 0 640 400" role="img" aria-label="Marketing Hero preview">
  <rect width="640" height="400" fill="#f4f4f5"/>
  
  <rect x="0" y="0" width="640" height="24" fill="#ffffff" stroke="#e4e4e7" stroke-width="1"/>
  <circle cx="38.4" cy="12" r="4.8" fill="#2563eb"/>
  <rect x="76.8" y="8.799999999999999" width="76.8" height="6.4" rx="3" fill="#18181b" opacity="0.15"/>
  <rect x="460.79999999999995" y="8.799999999999999" width="51.2" height="6.4" rx="3" fill="#71717a" opacity="0.35"/>
  <rect x="524.8" y="7.199999999999999" width="64" height="9.6" rx="5" fill="#2563eb"/>
  <rect x="0" y="0" width="640" height="137" fill="#dbeafe"/>
  <rect x="0" y="137" width="640" height="58" fill="#ffffff"/>
  <rect x="0" y="195" width="640" height="74" fill="#f4f4f5"/>
  <rect x="0" y="268" width="640" height="74" fill="#ffffff"/>
  <rect x="0" y="342" width="640" height="58" fill="#f4f4f5"/>
  
  <rect x="51.2" y="34.25" width="288" height="16.439999999999998" rx="4" fill="#18181b" opacity="0.12"/>
  <rect x="51.2" y="61.65" width="224" height="9.590000000000002" rx="3" fill="#71717a" opacity="0.25"/>
  <rect x="51.2" y="89.05" width="115.19999999999999" height="19.180000000000003" rx="6" fill="#2563eb"/>
  <rect x="371.2" y="27.400000000000002" width="217.60000000000002" height="89.05" rx="8" fill="#2563eb" opacity="0.25"/>
  <rect x="51.2" y="151.5" width="115.19999999999999" height="29" rx="4" fill="#ffffff" stroke="#e4e4e7"/>
  <rect x="192" y="151.5" width="115.19999999999999" height="29" rx="4" fill="#ffffff" stroke="#e4e4e7"/>
  <rect x="332.8" y="151.5" width="115.19999999999999" height="29" rx="4" fill="#ffffff" stroke="#e4e4e7"/>
  <rect x="473.6" y="151.5" width="115.19999999999999" height="29" rx="4" fill="#ffffff" stroke="#e4e4e7"/>
  
  <rect x="51.2" y="217.2" width="352" height="7.4" rx="4" fill="#18181b" opacity="0.1"/>
  <rect x="51.2" y="232" width="448" height="5.92" rx="3" fill="#71717a" opacity="0.2"/>
  <rect x="51.2" y="284.28" width="166.4" height="40.7" rx="6" fill="#ffffff" stroke="#e4e4e7"/>
  <rect x="236.8" y="284.28" width="166.4" height="40.7" rx="6" fill="#ffffff" stroke="#e4e4e7"/>
  <rect x="422.4" y="284.28" width="166.4" height="40.7" rx="6" fill="#ffffff" stroke="#e4e4e7"/>
  
  <rect x="192" y="356.5" width="256" height="6.96" rx="4" fill="#18181b" opacity="0.1"/>
  <rect x="230.39999999999998" y="373.9" width="179.20000000000002" height="9.28" rx="6" fill="#2563eb"/>
  <text x="25.6" y="392" font-family="ui-sans-serif,system-ui,sans-serif" font-size="11.200000000000001" font-weight="600" fill="#71717a">Marketing Hero</text>
</svg>