<svg xmlns="http://www.w3.org/2000/svg" width="640" height="400" viewBox="0 0 640 400" role="img" aria-label="Services preview">
  <rect width="640" height="400" fill="#f4f4f5"/>
  
  <rect x="0" y="0" width="640" height="24" fill="#ffffff" stroke="#e4e4e7" stroke-width="1"/>
  <circle cx="38.4" cy="12" r="4.8" fill="#2563eb"/>
  <rect x="76.8" y="8.799999999999999" width="76.8" height="6.4" rx="3" fill="#18181b" opacity="0.15"/>
  <rect x="460.79999999999995" y="8.799999999999999" width="51.2" height="6.4" rx="3" fill="#71717a" opacity="0.35"/>
  <rect x="524.8" y="7.199999999999999" width="64" height="9.6" rx="5" fill="#2563eb"/>
  <rect x="0" y="0" width="640" height="105" fill="#dbeafe"/>
  <rect x="0" y="105" width="640" height="116" fill="#ffffff"/>
  <rect x="0" y="221" width="640" height="95" fill="#f4f4f5"/>
  <rect x="0" y="316" width="640" height="84" fill="#ffffff"/>
  
  <rect x="51.2" y="26.25" width="288" height="12.6" rx="4" fill="#18181b" opacity="0.12"/>
  <rect x="51.2" y="47.25" width="224" height="7.3500000000000005" rx="3" fill="#71717a" opacity="0.25"/>
  <rect x="51.2" y="68.25" width="115.19999999999999" height="14.700000000000001" rx="6" fill="#2563eb"/>
  
  <rect x="51.2" y="130.52" width="166.4" height="63.800000000000004" rx="6" fill="#ffffff" stroke="#e4e4e7"/>
  <rect x="236.8" y="130.52" width="166.4" height="63.800000000000004" rx="6" fill="#ffffff" stroke="#e4e4e7"/>
  <rect x="422.4" y="130.52" width="166.4" height="63.800000000000004" rx="6" fill="#ffffff" stroke="#e4e4e7"/>
  <rect x="51.2" y="241.9" width="166.4" height="52.25000000000001" rx="6" fill="#ffffff" stroke="#e4e4e7"/>
  <rect x="236.8" y="241.9" width="166.4" height="52.25000000000001" rx="6" fill="#ffffff" stroke="#e4e4e7"/>
  <rect x="422.4" y="241.9" width="166.4" height="52.25000000000001" rx="6" fill="#ffffff" stroke="#e4e4e7"/>
  
  <rect x="192" y="337" width="256" height="10.08" rx="4" fill="#18181b" opacity="0.1"/>
  <rect x="230.39999999999998" y="362.2" width="179.20000000000002" height="13.44" rx="6" fill="#2563eb"/>
  <text x="25.6" y="392" font-family="ui-sans-serif,system-ui,sans-serif" font-size="11.200000000000001" font-weight="600" fill="#71717a">Services</text>
</svg>